<svg version="1.0" xmlns="http://www.w3.org/2000/svg" width="700pt" height="700pt" viewBox="0 0 700 700"><g transform="translate(0.000000,700.000000) scale(0.100000,-0.100000)" fill="#000" stroke="none"><path d="M1825 5804c-269-57-491-103-492-104-4 0-4-780 0-780 1 0 231 47 510 105 280 58 510 105 513 105 2 0 4-643 4-1430V2270l-502-2-503-3v-395-395l1491-3 1491-2 27-63c113-258 337-496 607-641 93-50 296-121 378-132l51-7V314 0h190 190l2 312 3 311 70 14c396 79 758 357 939 721 73 145 126 350 126 483v59h-159-158l-7-79c-21-250-156-503-353-659-212-169-499-254-753-223-362 44-654 242-809 548-45 89-81 224-88 325l-6 88h-63-64v185 185h-505-505v1820 1820l-567-1-568-1-490-104z"/><path d="M5525 3610c-129-14-234-66-336-169-51-51-86-97-107-141-60-123-62-141-62-831 0-591 1-630 20-703 27-105 73-189 145-262 176-178 437-223 663-112 92 45 208 160 250 248 63 130 62 119 62 842v657l-25 78c-83 261-332 421-610 393z"/></g></svg>