<?xml version="1.0" standalone="no"?>
<!DOCTYPE svg PUBLIC "-//W3C//DTD SVG 20010904//EN"
 "http://www.w3.org/TR/2001/REC-SVG-20010904/DTD/svg10.dtd">
<svg version="1.0" xmlns="http://www.w3.org/2000/svg"
 width="700.000000pt" height="700.000000pt" viewBox="0 0 700.000000 700.000000"
 preserveAspectRatio="xMidYMid meet">
<metadata>
Created by potrace 1.14, written by Peter Selinger 2001-2017
</metadata>
<g transform="translate(0.000000,700.000000) scale(0.100000,-0.100000)"
fill="#000000" stroke="none">
<path d="M1825 5804 c-269 -57 -491 -103 -492 -104 -4 0 -4 -780 0 -780 1 0
231 47 510 105 280 58 510 105 513 105 2 0 4 -643 4 -1430 l0 -1430 -502 -2
-503 -3 0 -395 0 -395 1491 -3 1491 -2 27 -63 c113 -258 337 -496 607 -641 93
-50 296 -121 378 -132 l51 -7 0 -313 0 -314 190 0 190 0 2 312 3 311 70 14
c396 79 758 357 939 721 73 145 126 350 126 483 l0 59 -159 0 -158 0 -7 -79
c-21 -250 -156 -503 -353 -659 -212 -169 -499 -254 -753 -223 -362 44 -654
242 -809 548 -45 89 -81 224 -88 325 l-6 88 -63 0 -64 0 0 185 0 185 -505 0
-505 0 0 1820 0 1820 -567 -1 -568 -1 -490 -104z"/>
<path d="M5525 3610 c-129 -14 -234 -66 -336 -169 -51 -51 -86 -97 -107 -141
-60 -123 -62 -141 -62 -831 0 -591 1 -630 20 -703 27 -105 73 -189 145 -262
176 -178 437 -223 663 -112 92 45 208 160 250 248 63 130 62 119 62 842 l0
657 -25 78 c-83 261 -332 421 -610 393z"/>
</g>
</svg>
